<svg width="72" height="73" viewBox="0 0 72 73" fill="none" xmlns="http://www.w3.org/2000/svg">
<path d="M33.3197 33.3127L0.975937 19.6943C0.512578 19.4991 1.72738e-09 19.8394 1.72738e-09 20.3423V56.75C-1.76157e-05 57.1996 0.134725 57.639 0.38684 58.0114C0.638955 58.3837 0.996872 58.672 1.41441 58.839L32.7857 71.3875C33.2475 71.5723 33.75 71.2321 33.75 70.7347V33.9607C33.75 33.8223 33.7091 33.6871 33.6326 33.5718C33.556 33.4565 33.4472 33.3664 33.3197 33.3127ZM36.2728 29.4438L67.5359 16.2805C68.0978 16.044 68.1128 15.2531 67.5603 14.9953L36.9515 0.711048C36.6535 0.572039 36.3288 0.5 36 0.5C35.6712 0.5 35.3465 0.572039 35.0485 0.711048L4.43967 14.9952C3.88716 15.2529 3.9022 16.0438 4.46414 16.2803L35.7272 29.4437C35.9016 29.5172 36.0984 29.5172 36.2728 29.4438ZM56.25 36.5C62.1998 36.5 67.5578 39.0802 71.2658 43.1795C71.525 43.4661 72 43.284 72 42.8977V20.3423C72 19.8394 71.4874 19.4991 71.0241 19.6943L38.6803 33.3127C38.5528 33.3664 38.4439 33.4565 38.3674 33.5718C38.2908 33.687 38.25 33.8223 38.25 33.9607V45.8849C38.25 46.3093 38.8055 46.4675 39.0291 46.1069C42.6029 40.3452 48.9856 36.5 56.25 36.5Z" fill="#E48080"/>
<path d="M56.25 41C47.5654 41 40.5 48.0654 40.5 56.75C40.5 65.4346 47.5654 72.5 56.25 72.5C64.9346 72.5 72 65.4346 72 56.75C72 48.0654 64.9346 41 56.25 41ZM61.2159 58.534C62.0947 59.4127 62.0947 60.8373 61.2159 61.716C60.7766 62.1553 60.2009 62.375 59.625 62.375C59.0491 62.375 58.4734 62.1553 58.0341 61.716L56.25 59.9319L54.4659 61.716C54.0266 62.1553 53.4509 62.375 52.875 62.375C52.2991 62.375 51.7234 62.1553 51.2841 61.716C50.4053 60.8373 50.4053 59.4127 51.2841 58.534L53.0681 56.75L51.2841 54.966C50.4053 54.0873 50.4053 52.6627 51.2841 51.784C52.1627 50.9053 53.5874 50.9053 54.466 51.784L56.25 53.5679L58.0341 51.7838C58.9127 50.9052 60.3374 50.9052 61.216 51.7838C62.0948 52.6626 62.0948 54.0871 61.216 54.9659L59.4319 56.75L61.2159 58.534Z" fill="#E48080"/>
</svg>
