<svg width="19" height="19" viewBox="0 0 19 19" fill="none" xmlns="http://www.w3.org/2000/svg">
<path d="M1.64348 0.833332C1.44264 0.833332 1.25003 0.913113 1.10802 1.05512C0.966012 1.19714 0.88623 1.38974 0.88623 1.59058C0.88623 1.79141 0.966012 1.98402 1.10802 2.12603C1.25003 2.26804 1.44264 2.34782 1.64348 2.34782H2.99138C3.10145 2.34802 3.20868 2.38276 3.29794 2.44716C3.3872 2.51156 3.45399 2.60237 3.48889 2.70676L5.98553 10.1982C6.09684 10.5314 6.11047 10.8888 6.02566 11.2296L5.82045 12.0527C5.51831 13.2597 6.45805 14.4638 7.70145 14.4638H16.7884C16.9892 14.4638 17.1818 14.384 17.3239 14.242C17.4659 14.1 17.5457 13.9074 17.5457 13.7065C17.5457 13.5057 17.4659 13.3131 17.3239 13.1711C17.1818 13.0291 16.9892 12.9493 16.7884 12.9493H7.70145C7.40612 12.9493 7.21681 12.707 7.28875 12.4215L7.44398 11.802C7.47014 11.6973 7.53053 11.6042 7.61559 11.5377C7.70065 11.4712 7.80549 11.4349 7.91348 11.4348H16.0312C16.1903 11.435 16.3454 11.385 16.4746 11.2921C16.6037 11.1991 16.7003 11.0678 16.7505 10.9168L18.7686 4.85885C18.8065 4.74501 18.8168 4.6238 18.7987 4.50518C18.7806 4.38657 18.7345 4.27397 18.6644 4.17665C18.5942 4.07932 18.5019 4.00007 18.3951 3.94542C18.2882 3.89077 18.17 3.86229 18.05 3.86232H5.84998C5.73978 3.86228 5.63238 3.82761 5.54297 3.7632C5.45355 3.69879 5.38665 3.6079 5.35171 3.50338L4.63384 1.35129C4.5836 1.20044 4.48715 1.06923 4.35817 0.976268C4.22918 0.883302 4.07421 0.833294 3.91522 0.833332H1.64348ZM6.9442 15.221C6.54253 15.221 6.15732 15.3806 5.87329 15.6646C5.58927 15.9486 5.42971 16.3338 5.42971 16.7355C5.42971 17.1372 5.58927 17.5224 5.87329 17.8064C6.15732 18.0904 6.54253 18.25 6.9442 18.25C7.34587 18.25 7.73109 18.0904 8.01511 17.8064C8.29913 17.5224 8.45869 17.1372 8.45869 16.7355C8.45869 16.3338 8.29913 15.9486 8.01511 15.6646C7.73109 15.3806 7.34587 15.221 6.9442 15.221ZM16.0312 15.221C15.6295 15.221 15.2443 15.3806 14.9602 15.6646C14.6762 15.9486 14.5167 16.3338 14.5167 16.7355C14.5167 17.1372 14.6762 17.5224 14.9602 17.8064C15.2443 18.0904 15.6295 18.25 16.0312 18.25C16.4328 18.25 16.818 18.0904 17.1021 17.8064C17.3861 17.5224 17.5457 17.1372 17.5457 16.7355C17.5457 16.3338 17.3861 15.9486 17.1021 15.6646C16.818 15.3806 16.4328 15.221 16.0312 15.221Z" fill="#1C1C1C"/>
</svg>
