<svg width="22" height="14" viewBox="0 0 22 14" fill="none" xmlns="http://www.w3.org/2000/svg">
<path fill-rule="evenodd" clip-rule="evenodd" d="M21.1748 6.9248C21.1748 7.33902 20.839 7.6748 20.4248 7.6748L2.42412 7.6748C2.0099 7.6748 1.67412 7.33902 1.67412 6.9248C1.67412 6.51059 2.0099 6.1748 2.42412 6.1748L20.4248 6.1748C20.839 6.1748 21.1748 6.51059 21.1748 6.9248Z" fill="#1C1C1C"/>
<path fill-rule="evenodd" clip-rule="evenodd" d="M6.90494 13.5009C6.58673 13.7661 6.11381 13.7231 5.84863 13.4049L1.1152 7.72503C0.728879 7.26147 0.72888 6.5881 1.1152 6.12454L5.84863 0.444636C6.11381 0.126433 6.58673 0.0834493 6.90494 0.348629C7.22314 0.613808 7.26612 1.08673 7.00094 1.40493L2.40089 6.92479L7.00094 12.4446C7.26612 12.7628 7.22314 13.2358 6.90494 13.5009Z" fill="#1C1C1C"/>
</svg>
