<svg width="22" height="14" viewBox="0 0 22 14" fill="none" xmlns="http://www.w3.org/2000/svg">
<path fill-rule="evenodd" clip-rule="evenodd" d="M0.825195 6.9248C0.825195 6.51059 1.16098 6.1748 1.5752 6.1748L19.5759 6.1748C19.9901 6.1748 20.3259 6.51059 20.3259 6.9248C20.3259 7.33902 19.9901 7.6748 19.5759 7.6748L1.5752 7.6748C1.16098 7.6748 0.825195 7.33902 0.825195 6.9248Z" fill="#1C1C1C"/>
<path fill-rule="evenodd" clip-rule="evenodd" d="M15.0951 0.348667C15.4133 0.0834875 15.8862 0.126472 16.1514 0.444674L20.8848 6.12458C21.2711 6.58814 21.2711 7.26151 20.8848 7.72507L16.1514 13.405C15.8862 13.7232 15.4133 13.7662 15.0951 13.501C14.7769 13.2358 14.7339 12.7629 14.9991 12.4447L19.5991 6.92482L14.9991 1.40497C14.7339 1.08677 14.7769 0.613846 15.0951 0.348667Z" fill="#1C1C1C"/>
</svg>
