<svg width="20" height="20" viewBox="0 0 20 20" fill="none" xmlns="http://www.w3.org/2000/svg">
<path d="M12.0193 9.99996L18.8743 3.14467C19.0629 2.95596 19.1669 2.70419 19.1672 2.43574C19.1672 2.16713 19.0632 1.91507 18.8743 1.72666L18.2736 1.12609C18.0847 0.936933 17.833 0.833336 17.5642 0.833336C17.2959 0.833336 17.0441 0.936933 16.8553 1.12609L10.0003 7.98093L3.14499 1.12609C2.95643 0.936933 2.70452 0.833336 2.43591 0.833336C2.1676 0.833336 1.91569 0.936933 1.72713 1.12609L1.12611 1.72666C0.73498 2.11779 0.73498 2.75398 1.12611 3.14467L7.98126 9.99996L1.12611 16.855C0.937404 17.044 0.833509 17.2957 0.833509 17.5642C0.833509 17.8326 0.937404 18.0844 1.12611 18.2733L1.72698 18.8738C1.91554 19.0628 2.1676 19.1666 2.43576 19.1666C2.70437 19.1666 2.95628 19.0628 3.14484 18.8738L10.0001 12.0188L16.8551 18.8738C17.044 19.0628 17.2957 19.1666 17.5641 19.1666H17.5644C17.8328 19.1666 18.0846 19.0628 18.2734 18.8738L18.8741 18.2733C19.0627 18.0846 19.1668 17.8326 19.1668 17.5642C19.1668 17.2957 19.0627 17.044 18.8741 16.8551L12.0193 9.99996Z" fill="black"/>
</svg>
