<svg width="64" height="81" viewBox="0 0 64 81" fill="none" xmlns="http://www.w3.org/2000/svg">
<path fill-rule="evenodd" clip-rule="evenodd" d="M18.6881 2.72207C18.6882 2.13356 18.922 1.56917 19.3381 1.15293C19.7541 0.736684 20.3184 0.502641 20.9069 0.502227L43.093 0.500977C43.6816 0.502341 44.2457 0.737033 44.6616 1.15361C45.0775 1.57019 45.3113 2.13467 45.3117 2.72332V8.21035H18.6881V2.72207ZM55.1664 77.3225C55.1098 78.1877 54.7247 78.9986 54.0898 79.5891C53.455 80.1796 52.6184 80.5052 51.7514 80.4991H11.9934C11.1267 80.4968 10.2928 80.1666 9.65946 79.5749C9.02606 78.9831 8.63998 78.1737 8.57875 77.3091L5.17656 27.5407H58.7975L55.1672 77.3219L55.1664 77.3225ZM64.0052 23.0332H-0.00390625V17.8769C-0.00295469 16.5094 0.540644 15.1981 1.50754 14.231C2.47443 13.2639 3.78559 12.72 5.15313 12.7188L58.8475 12.7171C60.2149 12.7192 61.5257 13.2635 62.4923 14.2307C63.4589 15.1979 64.0025 16.509 64.0038 17.8764V23.0327L64.0052 23.0332ZM21.6942 68.6349C21.6942 68.9308 21.7525 69.2238 21.8658 69.4972C21.979 69.7706 22.145 70.019 22.3542 70.2283C22.5635 70.4375 22.8119 70.6035 23.0853 70.7168C23.3587 70.83 23.6517 70.8883 23.9477 70.8883C24.2436 70.8883 24.5366 70.83 24.81 70.7168C25.0834 70.6035 25.3318 70.4375 25.5411 70.2283C25.7503 70.019 25.9163 69.7706 26.0296 69.4972C26.1428 69.2238 26.2011 68.9308 26.2011 68.6349V37.0338C26.1964 36.4395 25.957 35.8711 25.5352 35.4525C25.1133 35.0338 24.5431 34.7988 23.9488 34.7986C23.3545 34.7984 22.7842 35.033 22.362 35.4514C21.9399 35.8697 21.7002 36.4379 21.695 37.0322V68.6349H21.6942ZM37.7723 68.6349C37.7723 69.2326 38.0098 69.8059 38.4325 70.2285C38.8551 70.6512 39.4284 70.8886 40.0261 70.8886C40.6238 70.8886 41.1971 70.6512 41.6197 70.2285C42.0424 69.8059 42.2798 69.2326 42.2798 68.6349V37.0338C42.2751 36.4394 42.0357 35.871 41.6138 35.4523C41.1919 35.0336 40.6217 34.7985 40.0273 34.7983C39.4329 34.7981 38.8624 35.0328 38.4403 35.4512C38.0181 35.8696 37.7783 36.4378 37.7731 37.0322L37.7723 68.6349Z" fill="#E48080"/>
</svg>
