<svg width="86" height="86" viewBox="0 0 86 86" fill="none" xmlns="http://www.w3.org/2000/svg">
<path d="M40.0383 2.26254C41.6256 0.513974 44.3744 0.513971 45.9617 2.26254L49.915 6.61741C51.0082 7.82174 52.7219 8.24413 54.2497 7.68582L59.7739 5.66695C61.992 4.85634 64.4259 6.13373 65.0188 8.41968L66.4955 14.1129C66.9038 15.6874 68.2249 16.8578 69.8371 17.0734L75.6668 17.853C78.0076 18.166 79.569 20.4282 79.0317 22.7278L77.6934 28.4552C77.3233 30.0391 77.9492 31.6893 79.2765 32.6295L84.0761 36.029C86.0033 37.394 86.3346 40.1227 84.7901 41.9092L80.9435 46.3586C79.8798 47.589 79.667 49.3411 80.4054 50.7904L83.0754 56.0311C84.1475 58.1353 83.1728 60.7054 80.975 61.5695L75.5013 63.7217C73.9875 64.3168 72.9849 65.7694 72.9652 67.3958L72.8939 73.277C72.8653 75.6384 70.8078 77.4611 68.4602 77.2049L62.6133 76.5667C60.9964 76.3903 59.4336 77.2105 58.6603 78.6415L55.8641 83.8159C54.7413 85.8935 52.0725 86.5513 50.1128 85.2334L45.2322 81.9512C43.8825 81.0435 42.1175 81.0435 40.7678 81.9512L35.8872 85.2334C33.9275 86.5513 31.2587 85.8935 30.1359 83.8159L27.3397 78.6415C26.5664 77.2105 25.0036 76.3903 23.3867 76.5667L17.5398 77.2049C15.1922 77.4611 13.1347 75.6384 13.1061 73.277L13.0348 67.3958C13.0151 65.7694 12.0125 64.3168 10.4988 63.7217L5.02503 61.5695C2.82722 60.7054 1.8525 58.1353 2.92457 56.0311L5.59459 50.7904C6.33298 49.3411 6.12024 47.5891 5.05647 46.3586L1.20987 41.9092C-0.334624 40.1227 -0.003304 37.394 1.92385 36.029L6.72348 32.6295C8.05081 31.6893 8.67668 30.0391 8.30658 28.4552L6.96832 22.7278C6.43097 20.4282 7.99242 18.166 10.3332 17.853L16.1629 17.0734C17.7751 16.8578 19.0962 15.6874 19.5045 14.1129L20.9812 8.41968C21.5741 6.13374 24.008 4.85634 26.2261 5.66695L31.7503 7.68581C33.2781 8.24413 34.9918 7.82174 36.085 6.61741L40.0383 2.26254Z" fill="#DB0000"/>
<path d="M21.8806 47.7338L21.2021 45.3446L23.4168 38.1952C23.5873 37.6655 23.7413 37.1549 23.879 36.6636C24.0301 36.1685 24.1253 35.682 24.1647 35.204C24.2175 34.7222 24.1768 34.2451 24.0426 33.7727C23.9085 33.3002 23.7143 32.9761 23.4602 32.8003C23.206 32.6245 22.917 32.5826 22.593 32.6746C22.2286 32.7781 21.9738 32.9598 21.8289 33.2198C21.6839 33.4798 21.6188 33.79 21.6336 34.1504C21.662 34.5071 21.7356 34.8946 21.8544 35.3131L22.0844 36.123L18.8042 37.0544L18.557 36.1838C18.281 35.2119 18.1909 34.3039 18.2867 33.4598C18.3787 32.6022 18.7008 31.8616 19.2531 31.238C19.8015 30.6009 20.6224 30.1271 21.7158 29.8166C23.1872 29.3988 24.4033 29.4692 25.3642 30.0278C26.3348 30.5691 27.0136 31.5214 27.4008 32.8847C27.5886 33.5461 27.655 34.191 27.6001 34.8193C27.5586 35.4437 27.439 36.0757 27.2414 36.7153C27.0534 37.3376 26.8461 37.9945 26.6195 38.6861L24.8935 44.0119L29.6922 42.6492L30.4454 45.3016L21.8806 47.7338Z" fill="white"/>
<path d="M37.5105 43.6236C36.5252 43.9034 35.6462 43.9415 34.8736 43.7379C34.0971 43.5207 33.4405 43.1091 32.9038 42.503C32.367 41.8969 31.9663 41.1282 31.7018 40.1968L29.5917 32.7658C29.3195 31.8074 29.2371 30.9264 29.3444 30.1228C29.4614 29.3019 29.7931 28.5951 30.3395 28.0023C30.8859 27.4095 31.6721 26.9675 32.698 26.6761C33.7239 26.3848 34.6183 26.3496 35.3812 26.5706C36.1576 26.7877 36.8046 27.2167 37.322 27.8574C37.8492 28.4809 38.2488 29.2718 38.521 30.2302L40.6311 37.6611C40.8918 38.579 40.955 39.4436 40.8207 40.2549C40.6825 41.0526 40.3402 41.7479 39.7938 42.3407C39.2435 42.92 38.4824 43.3476 37.5105 43.6236ZM36.6538 40.6067C36.9778 40.5147 37.1785 40.3483 37.256 40.1074C37.3432 39.8493 37.3619 39.5814 37.3122 39.3038C37.2722 39.0088 37.2235 38.7601 37.166 38.5576L35.1018 31.2886C35.0367 31.0592 34.9503 30.8065 34.8428 30.5307C34.7315 30.2414 34.5709 30.0099 34.3611 29.836C34.161 29.6449 33.8922 29.5972 33.5547 29.6931C33.2172 29.7889 33.0069 29.9726 32.9235 30.2443C32.8499 30.4986 32.8417 30.7781 32.8991 31.0827C32.9526 31.3738 33.0119 31.6341 33.077 31.8636L35.1412 39.1326C35.1987 39.3351 35.288 39.5723 35.4089 39.8443C35.5261 40.1027 35.6828 40.3208 35.8792 40.4984C36.0851 40.6587 36.3434 40.6948 36.6538 40.6067Z" fill="white"/>
<path d="M50.1157 39.7159L50.5001 21.8834L52.3224 21.366L51.9583 39.1927L50.1157 39.7159ZM46.119 33.1926C44.7287 33.5874 43.6417 33.5095 42.8581 32.9589C42.0707 32.3949 41.47 31.3839 41.056 29.926L40.849 29.1971C40.4274 27.7123 40.4042 26.5519 40.7795 25.716C41.1547 24.8801 42.051 24.2608 43.4684 23.8584C44.8857 23.4559 45.9718 23.5049 46.7266 24.0053C47.4948 24.5019 48.0898 25.4926 48.5114 26.9775L48.7414 27.7874C49.1516 29.2317 49.168 30.394 48.7907 31.2743C48.4135 32.1545 47.5229 32.794 46.119 33.1926ZM45.5211 31.0868C45.872 30.9872 46.0968 30.8285 46.1955 30.6109C46.3038 30.3759 46.3284 30.0772 46.2692 29.7147C46.2062 29.3388 46.1038 28.9011 45.962 28.4016L45.8182 27.8954C45.5997 27.126 45.3934 26.5792 45.1993 26.2551C45.0013 25.9175 44.6256 25.8272 44.0721 25.9844C43.5322 26.1377 43.258 26.4052 43.2497 26.7868C43.2549 27.1646 43.3667 27.7382 43.5852 28.5076L43.7405 29.0543C43.8823 29.5538 44.0233 29.9732 44.1634 30.3127C44.3036 30.6522 44.4815 30.8934 44.6971 31.0364C44.909 31.1658 45.1836 31.1827 45.5211 31.0868ZM58.99 37.2177C57.5997 37.6126 56.5127 37.5347 55.7291 36.9841C54.9552 36.4161 54.3612 35.4033 53.9473 33.9454L53.7403 33.2165C53.3186 31.7316 53.2887 30.5732 53.6505 29.7411C54.0257 28.9052 54.9221 28.286 56.3394 27.8835C57.7568 27.481 58.8428 27.53 59.5976 28.0304C60.3658 28.527 60.9608 29.5177 61.3824 31.0026L61.6067 31.7922C62.0207 33.2501 62.039 34.4191 61.6617 35.2994C61.2845 36.1796 60.3939 36.8191 58.99 37.2177ZM58.3921 35.112C58.743 35.0123 58.9678 34.8536 59.0665 34.636C59.1748 34.401 59.1994 34.1023 59.1402 33.7398C59.0811 33.3774 58.9806 32.9464 58.8387 32.447L58.6835 31.9003C58.465 31.1309 58.2587 30.5841 58.0645 30.26C57.8704 29.9358 57.4966 29.8523 56.9431 30.0095C56.4032 30.1628 56.1291 30.4303 56.1207 30.8119C56.1259 31.1897 56.2377 31.7633 56.4562 32.5328L56.6115 33.0794C56.7533 33.5789 56.8943 33.9983 57.0344 34.3378C57.1746 34.6773 57.3525 34.9185 57.5682 35.0615C57.78 35.191 58.0546 35.2078 58.3921 35.112Z" fill="white"/>
<path d="M39.8131 67.8027C38.5847 68.1515 37.5515 68.2115 36.7134 67.9827C35.8754 67.7539 35.1861 67.2787 34.6456 66.5569C34.1052 65.8352 33.6759 64.9141 33.3577 63.7937L31.627 57.6991C31.305 56.5652 31.1862 55.556 31.2705 54.6714C31.3548 53.7868 31.6953 53.0337 32.2919 52.4121C32.8846 51.777 33.7952 51.2851 35.0236 50.9362C36.2654 50.5836 37.3054 50.5217 38.1435 50.7505C38.9912 50.9619 39.6834 51.4218 40.2201 52.13C40.7567 52.8383 41.186 53.7593 41.508 54.8932L43.2386 60.9878C43.5568 62.1082 43.6756 63.1174 43.5952 64.0155C43.5147 64.9136 43.1713 65.6821 42.5651 66.321C41.9723 66.9562 41.055 67.45 39.8131 67.8027ZM39.0829 65.2312C39.4609 65.1239 39.7107 64.9508 39.8326 64.712C39.9544 64.4732 40.0001 64.1976 39.9698 63.8853C39.9394 63.573 39.8802 63.2616 39.792 62.9512L37.5496 55.0545C37.4576 54.7306 37.3444 54.4345 37.2099 54.1664C37.0716 53.8847 36.8878 53.6743 36.6587 53.5352C36.4295 53.396 36.126 53.3801 35.748 53.4875C35.3971 53.5871 35.1607 53.7564 35.0389 53.9952C34.917 54.234 34.8713 54.5095 34.9016 54.8218C34.9281 55.1206 34.9874 55.432 35.0794 55.756L37.3218 63.6527C37.41 63.9631 37.5165 64.2611 37.6413 64.5466C37.7796 64.8282 37.9566 65.0405 38.1722 65.1835C38.4014 65.3226 38.7049 65.3385 39.0829 65.2312Z" fill="white"/>
<path d="M47.3155 65.4097L42.6582 49.0089L49.745 46.9965L50.4407 49.4465L46.9783 50.4297L48.1513 54.5602L51.1682 53.7035L51.8869 56.2345L48.87 57.0912L50.9399 64.3805L47.3155 65.4097Z" fill="white"/>
<path d="M56.4998 62.8016L51.8425 46.4009L58.9293 44.3884L59.625 46.8384L56.1626 47.8216L57.3356 51.9522L60.3525 51.0955L61.0712 53.6265L58.0543 54.4832L60.1242 61.7724L56.4998 62.8016Z" fill="white"/>
</svg>
