<svg width="20" height="14" viewBox="0 0 20 14" fill="none" xmlns="http://www.w3.org/2000/svg">
<path d="M19.8207 6.43C19.7377 6.311 17.7587 3.486 15.0277 1.555C13.6117 0.552 11.8257 0 9.9997 0C8.1747 0 6.3887 0.552 4.9697 1.555C2.2387 3.486 0.261702 6.311 0.178702 6.43C0.0623546 6.5975 0 6.79656 0 7.0005C0 7.20444 0.0623546 7.4035 0.178702 7.571C0.261702 7.69 2.2387 10.515 4.9697 12.446C6.3887 13.448 8.1747 14 9.9997 14C11.8257 14 13.6117 13.448 15.0277 12.445C17.7587 10.514 19.7377 7.689 19.8207 7.57C19.9374 7.40282 19.9999 7.20387 19.9999 7C19.9999 6.79613 19.9374 6.59718 19.8207 6.43ZM9.9997 10.5C8.0657 10.5 6.4997 8.93 6.4997 7C6.4997 5.066 8.0657 3.5 9.9997 3.5C11.9297 3.5 13.4997 5.066 13.4997 7C13.4997 8.93 11.9297 10.5 9.9997 10.5ZM11.9997 7C11.9997 8.102 11.1017 9 9.9997 9C9.60414 9 9.21746 8.8827 8.88856 8.66294C8.55966 8.44318 8.30332 8.13082 8.15194 7.76537C8.00057 7.39991 7.96096 6.99778 8.03813 6.60982C8.1153 6.22186 8.30578 5.86549 8.58549 5.58579C8.86519 5.30608 9.22156 5.1156 9.60952 5.03843C9.99748 4.96126 10.3996 5.00087 10.7651 5.15224C11.1305 5.30362 11.4429 5.55996 11.6626 5.88886C11.8824 6.21776 11.9997 6.60444 11.9997 7Z" fill="#1C1C1C"/>
</svg>
