<svg width="288" height="45" viewBox="0 0 288 45" fill="none" xmlns="http://www.w3.org/2000/svg">
<path d="M0 45V0H20.7285V6.77778H10.1934V17.9444H18.2229V24.8333H10.1934V38.2778H20.8424V45H0Z" fill="#1C1C1C"/>
<path d="M26.5522 45V39L37.8276 6.72222H27.0647V0H47.8501V5.61111L36.4039 38.2778H47.964V45H26.5522Z" fill="#1C1C1C"/>
<path d="M61.6094 45V26.6111L52.8396 0H62.4636L66.8485 14.2222L70.7778 0H80.0031L71.4042 26.6111V45H61.6094Z" fill="#1C1C1C"/>
<path d="M121.567 45V0H134.266C137.379 0 140.075 0.333333 142.353 1C144.631 1.66667 146.396 2.87037 147.649 4.61111C148.94 6.31481 149.585 8.74074 149.585 11.8889C149.585 13.7407 149.433 15.3889 149.129 16.8333C148.826 18.2778 148.256 19.537 147.421 20.6111C146.624 21.6481 145.466 22.5185 143.947 23.2222L150.268 45H139.733L134.665 24.8333H131.761V45H121.567ZM131.761 19.1111H134.608C136.051 19.1111 137.171 18.8704 137.968 18.3889C138.765 17.8704 139.316 17.1481 139.619 16.2222C139.961 15.2593 140.132 14.1111 140.132 12.7778C140.132 10.8519 139.771 9.35185 139.05 8.27778C138.329 7.2037 137 6.66667 135.064 6.66667H131.761V19.1111Z" fill="#1C1C1C"/>
<path d="M158.56 45V0H179.289V6.77778H168.754V17.9444H176.783V24.8333H168.754V38.2778H179.403V45H158.56Z" fill="#1C1C1C"/>
<path d="M191.035 45V7.38889H184.087V0H208.176V7.38889H201.285V45H191.035Z" fill="#1C1C1C"/>
<path d="M210.806 45L219.518 0H231.135L239.734 45H230.338L228.801 35.5H222.024L220.429 45H210.806ZM222.935 29.5556H227.833L225.384 12L222.935 29.5556Z" fill="#1C1C1C"/>
<path d="M247.296 45V0H257.489V45H247.296Z" fill="#1C1C1C"/>
<path d="M267.215 45V0H277.408V38.2778H288V45H267.215Z" fill="#1C1C1C"/>
<path d="M106.68 22.0925C106.68 26.1835 103.28 29.4999 99.0868 29.4999C94.8934 29.4999 91.494 26.1835 91.494 22.0925C91.494 18.0015 94.8934 14.6851 99.0868 14.6851C103.28 14.6851 106.68 18.0015 106.68 22.0925Z" fill="#1C1C1C"/>
</svg>
