<svg width="165" height="26" viewBox="0 0 165 26" fill="none" xmlns="http://www.w3.org/2000/svg">
<path d="M0 26V0H11.8757V3.91605H5.83998V10.3679H10.4402V14.3481H5.83998V22.116H11.941V26H0Z" fill="white"/>
<path d="M15.2122 26V22.5333L21.672 3.88395H15.5058V0H27.4141V3.24198L20.8564 22.116H27.4794V26H15.2122Z" fill="white"/>
<path d="M35.297 26V15.3753L30.2727 0H35.7864L38.2986 8.21728L40.5498 0H45.8351L40.9086 15.3753V26H35.297Z" fill="white"/>
<path d="M69.6479 26V0H76.9234C78.707 0 80.2513 0.192593 81.5563 0.577778C82.8613 0.962963 83.8727 1.65844 84.5904 2.6642C85.33 3.64856 85.6997 5.05021 85.6997 6.86914C85.6997 7.9391 85.6127 8.89136 85.4387 9.72593C85.2647 10.5605 84.9385 11.2881 84.46 11.9086C84.0032 12.5078 83.3398 13.0107 82.4698 13.4173L86.0912 26H80.0555L77.1518 14.3481H75.4879V26H69.6479ZM75.4879 11.042H77.1192C77.9457 11.042 78.5873 10.9029 79.0441 10.6247C79.5009 10.3251 79.8162 9.90782 79.9902 9.37284C80.186 8.81646 80.2839 8.15309 80.2839 7.38272C80.2839 6.26996 80.0773 5.40329 79.664 4.78272C79.2507 4.16214 78.4895 3.85185 77.3802 3.85185H75.4879V11.042Z" fill="white"/>
<path d="M90.8418 26V0H102.718V3.91605H96.6818V10.3679H101.282V14.3481H96.6818V22.116H102.783V26H90.8418Z" fill="white"/>
<path d="M109.447 26V4.26914H105.467V0H119.267V4.26914H115.32V26H109.447Z" fill="white"/>
<path d="M120.774 26L125.766 0H132.421L137.348 26H131.965L131.084 20.5111H127.201L126.288 26H120.774ZM127.723 17.0765H130.529L129.126 6.93333L127.723 17.0765Z" fill="white"/>
<path d="M141.68 26V0H147.52V26H141.68Z" fill="white"/>
<path d="M153.092 26V0H158.932V22.116H165V26H153.092Z" fill="white"/>
<path d="M61.1185 12.7645C61.1185 15.1282 59.171 17.0443 56.7685 17.0443C54.366 17.0443 52.4184 15.1282 52.4184 12.7645C52.4184 10.4008 54.366 8.48467 56.7685 8.48467C59.171 8.48467 61.1185 10.4008 61.1185 12.7645Z" fill="white"/>
</svg>
