<svg width="20" height="17" viewBox="0 0 20 17" fill="none" xmlns="http://www.w3.org/2000/svg">
<path d="M19.1668 5.69997C19.1668 11.3827 10.6721 15.9825 10.3104 16.1725C10.215 16.2234 10.1084 16.25 10.0002 16.25C9.89189 16.25 9.78532 16.2234 9.68997 16.1725C9.32821 15.9825 0.833496 11.3827 0.833496 5.69997C0.835012 4.36552 1.37012 3.08615 2.32143 2.14255C3.27274 1.19894 4.56255 0.668168 5.9079 0.666664C7.598 0.666664 9.07777 1.38756 10.0002 2.60611C10.9226 1.38756 12.4023 0.666664 14.0924 0.666664C15.4378 0.668168 16.7276 1.19894 17.6789 2.14255C18.6302 3.08615 19.1653 4.36552 19.1668 5.69997Z" fill="#1C1C1C"/>
</svg>
