<svg width="18" height="20" viewBox="0 0 18 20" fill="none" xmlns="http://www.w3.org/2000/svg">
<path d="M8.99991 9.74397C11.6906 9.74397 13.8719 7.5627 13.8719 4.87198C13.8719 2.18126 11.6906 0 8.99991 0C6.30919 0 4.12793 2.18126 4.12793 4.87198C4.12793 7.5627 6.30919 9.74397 8.99991 9.74397Z" fill="#1C1C1C"/>
<path d="M17.6878 15.457L17.5544 15.1288C17.1063 14.003 16.3359 13.0345 15.3396 12.3448C14.3434 11.6551 13.1657 11.2749 11.9542 11.2517H6.05656C4.84509 11.2749 3.66741 11.6551 2.67117 12.3448C1.67492 13.0345 0.904451 14.003 0.456346 15.1288L0.312751 15.4467C0.0890721 15.9601 -0.00455005 16.5207 0.0401771 17.0789C0.0849042 17.6371 0.2666 18.1757 0.569171 18.6469C0.815551 19.0492 1.16064 19.382 1.57171 19.6135C1.98277 19.8451 2.44618 19.9678 2.91798 19.97H15.0723C15.5454 19.9676 16.0102 19.8449 16.4229 19.6134C16.8356 19.382 17.1826 19.0494 17.4314 18.6469C17.7313 18.1765 17.9116 17.6399 17.9563 17.0838C18.001 16.5278 17.9088 15.9692 17.6878 15.457Z" fill="#1C1C1C"/>
</svg>
