<svg width="14" height="14" viewBox="0 0 14 14" fill="none" xmlns="http://www.w3.org/2000/svg">
<path d="M12.7482 0.333329H0.86121C0.758348 0.333116 0.657425 0.361316 0.569573 0.41482C0.481721 0.468324 0.410354 0.545053 0.363342 0.636544C0.315695 0.729303 0.29459 0.833418 0.302353 0.937409C0.310115 1.0414 0.346445 1.14123 0.407335 1.22588L4.76226 7.36074C4.76371 7.36287 4.76531 7.36483 4.76676 7.36697C4.92501 7.58062 5.01063 7.83936 5.01106 8.10524V13.1069C5.0106 13.1803 5.02464 13.2529 5.05236 13.3208C5.08008 13.3887 5.12093 13.4504 5.17258 13.5025C5.22428 13.5545 5.28573 13.5957 5.35343 13.6239C5.42112 13.6521 5.49371 13.6666 5.56703 13.6667C5.64231 13.6665 5.71682 13.6516 5.78632 13.6227L8.23346 12.6896C8.45265 12.6226 8.5982 12.4157 8.5982 12.1667V8.10524C8.59863 7.83939 8.68418 7.58066 8.84233 7.36697C8.84378 7.36483 8.84537 7.36287 8.84683 7.36074L13.2019 1.22575C13.2628 1.14115 13.2991 1.04137 13.3069 0.937429C13.3146 0.833486 13.2935 0.72942 13.2459 0.636714C13.1989 0.545192 13.1276 0.468424 13.0398 0.414887C12.952 0.361349 12.851 0.333125 12.7482 0.333329Z" fill="white"/>
</svg>
