<svg width="18" height="18" viewBox="0 0 18 18" fill="none" xmlns="http://www.w3.org/2000/svg">
<path opacity="0.15" d="M6.6276 3.50682C7.68314 1.61328 8.21091 0.666504 8.99996 0.666504C9.78901 0.666504 10.3168 1.61327 11.3723 3.50682L11.6454 3.9967C11.9454 4.53478 12.0953 4.80383 12.3292 4.98134C12.563 5.15886 12.8543 5.22475 13.4367 5.35654L13.967 5.47653C16.0167 5.9403 17.0416 6.17219 17.2854 6.95628C17.5293 7.74037 16.8306 8.5574 15.4332 10.1914L15.0717 10.6142C14.6746 11.0785 14.4761 11.3107 14.3867 11.5979C14.2974 11.8852 14.3274 12.1949 14.3875 12.8145L14.4421 13.3785C14.6534 15.5587 14.759 16.6488 14.1207 17.1334C13.4823 17.618 12.5227 17.1761 10.6036 16.2925L10.1071 16.0639C9.56169 15.8128 9.289 15.6872 8.99996 15.6872C8.71091 15.6872 8.43823 15.8128 7.89287 16.0639L7.39635 16.2925C5.47719 17.1761 4.51761 17.6179 3.87925 17.1334C3.24089 16.6488 3.34653 15.5587 3.55779 13.3785L3.61245 12.8145C3.67248 12.1949 3.7025 11.8852 3.61318 11.5979C3.52386 11.3107 3.32531 11.0785 2.92822 10.6142L2.56671 10.1914C1.16933 8.5574 0.470646 7.74037 0.714477 6.95628C0.958307 6.17219 1.98317 5.9403 4.03291 5.47653L4.5632 5.35654C5.14567 5.22476 5.4369 5.15886 5.67075 4.98134C5.90459 4.80383 6.05456 4.53478 6.35452 3.9967L6.6276 3.50682Z" fill="#1C1C1C"/>
</svg>
