<svg width="35" height="31" viewBox="0 0 35 31" fill="none" xmlns="http://www.w3.org/2000/svg">
<path d="M12.5628 26.7301L13.1819 25.9448L12.5628 26.7301ZM17.5 4.93844L16.7795 5.6319C16.968 5.82776 17.2282 5.93844 17.5 5.93844C17.7718 5.93844 18.032 5.82776 18.2205 5.6319L17.5 4.93844ZM22.4372 26.7301L23.0563 27.5154L22.4372 26.7301ZM13.1819 25.9448C10.7319 24.0134 8.01455 22.0996 5.86115 19.6748C3.74204 17.2886 2.25 14.4867 2.25 10.8477H0.25C0.25 15.1109 2.02375 18.3657 4.36573 21.0028C6.67343 23.6014 9.61244 25.6776 11.9437 27.5154L13.1819 25.9448ZM2.25 10.8477C2.25 7.27069 4.27154 4.25969 7.04864 2.99027C9.7627 1.74967 13.3793 2.09923 16.7795 5.6319L18.2205 4.24497C14.3084 0.180493 9.80006 -0.46645 6.21718 1.17129C2.69734 2.78022 0.25 6.52242 0.25 10.8477H2.25ZM11.9437 27.5154C12.7781 28.1732 13.6599 28.8632 14.5502 29.3834C15.4401 29.9034 16.4336 30.3124 17.5 30.3124V28.3124C16.9414 28.3124 16.3099 28.0952 15.5593 27.6566C14.809 27.2182 14.0347 26.617 13.1819 25.9448L11.9437 27.5154ZM23.0563 27.5154C25.3876 25.6776 28.3266 23.6014 30.6343 21.0028C32.9763 18.3657 34.75 15.1109 34.75 10.8477H32.75C32.75 14.4867 31.258 17.2886 29.1388 19.6748C26.9854 22.0996 24.2681 24.0134 21.8181 25.9448L23.0563 27.5154ZM34.75 10.8477C34.75 6.52242 32.3027 2.78022 28.7828 1.17129C25.1999 -0.46645 20.6916 0.180493 16.7795 4.24497L18.2205 5.6319C21.6207 2.09923 25.2373 1.74967 27.9514 2.99027C30.7285 4.25969 32.75 7.27069 32.75 10.8477H34.75ZM21.8181 25.9448C20.9653 26.617 20.191 27.2182 19.4407 27.6566C18.6901 28.0952 18.0586 28.3124 17.5 28.3124V30.3124C18.5664 30.3124 19.5599 29.9034 20.4498 29.3834C21.3401 28.8632 22.2219 28.1732 23.0563 27.5154L21.8181 25.9448Z" fill="#1C1C1C"/>
</svg>
