<svg width="21" height="21" viewBox="0 0 21 21" fill="none" xmlns="http://www.w3.org/2000/svg">
<path d="M11.5709 0.0847778C12.331 0.0818609 13.0911 0.0895006 13.8511 0.107695L14.0532 0.114986C14.2865 0.123319 14.5167 0.133736 14.7948 0.146236C15.9032 0.198319 16.6594 0.37332 17.3229 0.630611C18.0104 0.895195 18.5896 1.25353 19.1688 1.83269C19.6983 2.35312 20.1082 2.98264 20.3698 3.67749C20.6271 4.34103 20.8021 5.09832 20.8542 6.20665C20.8667 6.48374 20.8771 6.71499 20.8854 6.94832L20.8917 7.1504C20.9102 7.90998 20.9182 8.66977 20.9157 9.42957L20.9167 10.2067V11.5712C20.9193 12.3314 20.9113 13.0915 20.8927 13.8514L20.8865 14.0535C20.8782 14.2869 20.8677 14.5171 20.8552 14.7952C20.8032 15.9035 20.6261 16.6598 20.3698 17.3233C20.109 18.0189 19.6991 18.6489 19.1688 19.1692C18.6479 19.6987 18.0181 20.1085 17.3229 20.3702C16.6594 20.6275 15.9032 20.8025 14.7948 20.8546C14.5167 20.8671 14.2865 20.8775 14.0532 20.8858L13.8511 20.8921C13.0912 20.9106 12.331 20.9186 11.5709 20.916L10.7938 20.9171H9.43024C8.6701 20.9196 7.90995 20.9117 7.15003 20.8931L6.94795 20.8869C6.70067 20.8779 6.45344 20.8675 6.20628 20.8556C5.09795 20.8035 4.3417 20.6264 3.67711 20.3702C2.98199 20.1091 2.35236 19.6992 1.83232 19.1692C1.30216 18.6486 0.891932 18.0187 0.63024 17.3233C0.372948 16.6598 0.197948 15.9035 0.145865 14.7952C0.134264 14.548 0.123847 14.3008 0.114615 14.0535L0.109406 13.8514C0.0902019 13.0915 0.0815204 12.3314 0.0833647 11.5712V9.42957C0.0804575 8.66978 0.0880972 7.90998 0.106281 7.1504L0.113573 6.94832C0.121906 6.71499 0.132323 6.48374 0.144823 6.20665C0.196906 5.09728 0.371906 4.34207 0.629198 3.67749C0.891045 2.9823 1.30208 2.35295 1.83336 1.83374C2.35305 1.30327 2.98228 0.892666 3.67711 0.630611C4.3417 0.37332 5.09691 0.198319 6.20628 0.146236L6.94795 0.114986L7.15003 0.109778C7.9096 0.0905829 8.66939 0.0819015 9.4292 0.0837362L11.5709 0.0847778ZM10.5 5.29311C9.80993 5.28335 9.12478 5.41084 8.48438 5.66818C7.84399 5.92552 7.26112 6.30757 6.76966 6.79213C6.2782 7.27669 5.88795 7.85409 5.62158 8.49078C5.35521 9.12747 5.21804 9.81076 5.21804 10.5009C5.21804 11.1911 5.35521 11.8744 5.62158 12.5111C5.88795 13.1478 6.2782 13.7252 6.76966 14.2097C7.26112 14.6943 7.84399 15.0763 8.48438 15.3337C9.12478 15.591 9.80993 15.7185 10.5 15.7087C11.8814 15.7087 13.2061 15.16 14.1829 14.1833C15.1596 13.2065 15.7084 11.8817 15.7084 10.5004C15.7084 9.11907 15.1596 7.79431 14.1829 6.81756C13.2061 5.8408 11.8814 5.29311 10.5 5.29311ZM10.5 7.37645C10.9151 7.3688 11.3276 7.44394 11.7134 7.59749C12.0991 7.75105 12.4504 7.97993 12.7467 8.27076C13.043 8.5616 13.2783 8.90856 13.439 9.29138C13.5997 9.67421 13.6825 10.0852 13.6826 10.5004C13.6827 10.9156 13.6 11.3266 13.4394 11.7095C13.2789 12.0924 13.0436 12.4394 12.7474 12.7303C12.4512 13.0213 12.1 13.2503 11.7143 13.404C11.3286 13.5576 10.9162 13.6329 10.5011 13.6254C9.67227 13.6254 8.87742 13.2962 8.29136 12.7101C7.70531 12.1241 7.37607 11.3292 7.37607 10.5004C7.37607 9.6716 7.70531 8.87675 8.29136 8.29069C8.87742 7.70464 9.67227 7.3754 10.5011 7.3754L10.5 7.37645ZM15.9688 3.73061C15.6327 3.74406 15.3149 3.88702 15.0819 4.12954C14.8489 4.37206 14.7188 4.69533 14.7188 5.03165C14.7188 5.36797 14.8489 5.69124 15.0819 5.93377C15.3149 6.17629 15.6327 6.31924 15.9688 6.33269C16.3141 6.33269 16.6453 6.19551 16.8895 5.95132C17.1337 5.70714 17.2709 5.37595 17.2709 5.03061C17.2709 4.68528 17.1337 4.35409 16.8895 4.1099C16.6453 3.86571 16.3141 3.72853 15.9688 3.72853V3.73061Z" fill="#1C1C1C"/>
</svg>
