<svg width="16" height="12" viewBox="0 0 16 12" fill="none" xmlns="http://www.w3.org/2000/svg">
<path d="M14.4286 0.75H1.57143C1.28727 0.75 1.01475 0.860625 0.813814 1.05754C0.612882 1.25445 0.5 1.52152 0.5 1.8V10.2C0.5 10.4785 0.612882 10.7455 0.813814 10.9425C1.01475 11.1394 1.28727 11.25 1.57143 11.25H14.4286C14.7127 11.25 14.9853 11.1394 15.1862 10.9425C15.3871 10.7455 15.5 10.4785 15.5 10.2V1.8C15.5 1.52152 15.3871 1.25445 15.1862 1.05754C14.9853 0.860625 14.7127 0.75 14.4286 0.75ZM13.25 1.8L8 5.3595L2.75 1.8H13.25ZM1.57143 10.2V2.27775L7.69464 6.4305C7.78432 6.49147 7.89086 6.52414 8 6.52414C8.10914 6.52414 8.21568 6.49147 8.30536 6.4305L14.4286 2.27775V10.2H1.57143Z" fill="#808080"/>
</svg>
