<svg width="14" height="10" viewBox="0 0 14 10" fill="none" xmlns="http://www.w3.org/2000/svg">
<path d="M1.33325 2H12.6666C12.9318 2 13.1862 1.89464 13.3737 1.70711C13.5612 1.51957 13.6666 1.26522 13.6666 1C13.6666 0.734784 13.5612 0.480429 13.3737 0.292893C13.1862 0.105357 12.9318 0 12.6666 0H1.33325C1.06804 0 0.813682 0.105357 0.626145 0.292893C0.438609 0.480429 0.333252 0.734784 0.333252 1C0.333252 1.26522 0.438609 1.51957 0.626145 1.70711C0.813682 1.89464 1.06804 2 1.33325 2ZM12.6666 4H1.33325C1.06804 4 0.813682 4.10536 0.626145 4.29289C0.438609 4.48043 0.333252 4.73478 0.333252 5C0.333252 5.26522 0.438609 5.51957 0.626145 5.70711C0.813682 5.89464 1.06804 6 1.33325 6H12.6666C12.9318 6 13.1862 5.89464 13.3737 5.70711C13.5612 5.51957 13.6666 5.26522 13.6666 5C13.6666 4.73478 13.5612 4.48043 13.3737 4.29289C13.1862 4.10536 12.9318 4 12.6666 4ZM12.6666 8H1.33325C1.06804 8 0.813682 8.10536 0.626145 8.29289C0.438609 8.48043 0.333252 8.73478 0.333252 9C0.333252 9.26522 0.438609 9.51957 0.626145 9.70711C0.813682 9.89464 1.06804 10 1.33325 10H12.6666C12.9318 10 13.1862 9.89464 13.3737 9.70711C13.5612 9.51957 13.6666 9.26522 13.6666 9C13.6666 8.73478 13.5612 8.48043 13.3737 8.29289C13.1862 8.10536 12.9318 8 12.6666 8Z" fill="#1C1C1C"/>
</svg>
