<svg width="14" height="14" viewBox="0 0 14 14" fill="none" xmlns="http://www.w3.org/2000/svg">
<path d="M1.57596 5.10062C1.035 3.7753 1.70672 2.3054 3.07925 1.49496C3.32281 1.35109 3.61205 1.30549 3.88805 1.36746C4.16406 1.42942 4.40605 1.59429 4.56473 1.82846L5.34665 2.9822C5.47249 3.16779 5.54 3.38676 5.54052 3.61099C5.54103 3.83523 5.47452 4.0545 5.34952 4.24066L4.24723 5.87815C4.19293 5.959 4.1605 6.05254 4.15311 6.14965C4.14572 6.24676 4.16362 6.34413 4.20507 6.43226L4.23192 6.48596L4.30014 6.61995C4.64287 7.26823 5.07128 7.86744 5.57384 8.40144C6.1173 8.96661 6.73927 9.45062 7.42062 9.8386L7.47387 9.86741C7.55966 9.91307 7.6558 9.93572 7.75295 9.93316C7.85009 9.9306 7.94491 9.90292 8.02817 9.85282L9.71863 8.83486C9.9108 8.71939 10.1331 8.66397 10.357 8.6757C10.5809 8.68744 10.7961 8.7658 10.9752 8.90074L12.095 9.74261C12.5615 10.0929 12.6729 10.7465 12.3516 11.2326C11.4729 12.5639 9.96566 13.1568 8.67042 12.5471C7.08173 11.7954 5.64493 10.7578 4.43183 9.48606C3.21206 8.21713 2.24386 6.7291 1.57596 5.10062ZM5.36858 6.22779L6.28116 4.86872C6.53136 4.49647 6.6646 4.05794 6.66377 3.60942C6.66294 3.16089 6.52808 2.72286 6.27651 2.35153L5.49568 1.19753C5.1764 0.726583 4.68963 0.395026 4.13448 0.27037C3.57933 0.145715 2.99754 0.237333 2.50756 0.52657C0.802996 1.53404 -0.276107 3.5409 0.534253 5.52682C1.10036 6.91319 2.0464 8.62217 3.62002 10.2653C4.92858 11.6365 6.47829 12.7551 8.19174 13.5653C10.1345 14.4794 12.1986 13.5089 13.2921 11.8539C13.605 11.3806 13.7255 10.8058 13.6291 10.2466C13.5326 9.68752 13.2264 9.18628 12.773 8.84522L11.6529 8.00225C11.2946 7.73283 10.8641 7.57656 10.4164 7.55348C9.96876 7.5304 9.52441 7.64155 9.14035 7.87269L7.73671 8.71725C7.2469 8.40755 6.79502 8.0416 6.39026 7.62687C5.99402 7.20446 5.65133 6.73484 5.36993 6.22862" fill="#808080"/>
</svg>
