<svg width="18" height="18" viewBox="0 0 18 18" fill="none" xmlns="http://www.w3.org/2000/svg">
<path d="M16.5789 7.57895H10.4211V1.42105C10.4211 0.637453 9.7836 0 9 0C8.2164 0 7.57895 0.637453 7.57895 1.42105V7.57895H1.42105C0.637453 7.57895 0 8.2164 0 9C0 9.7836 0.637453 10.4211 1.42105 10.4211H7.57895V16.5789C7.57895 17.3625 8.2164 18 9 18C9.7836 18 10.4211 17.3625 10.4211 16.5789V10.4211H16.5789C17.3625 10.4211 18 9.7836 18 9C18 8.2164 17.3625 7.57895 16.5789 7.57895Z" fill="#1C1C1C"/>
</svg>
