<svg width="34" height="35" viewBox="0 0 34 35" fill="none" xmlns="http://www.w3.org/2000/svg">
<path d="M28.6495 7.53859C26.1248 4.92698 22.8572 3.26633 19.311 2.76115L20.3218 1.75039C20.7222 1.34994 20.7222 0.700735 20.3218 0.300286C19.9214 -0.100095 19.2721 -0.100095 18.8717 0.300286L16.2749 2.89698C15.8745 3.29737 15.8745 3.94664 16.2749 4.34709L18.8716 6.94379C19.0718 7.14402 19.3343 7.24416 19.5966 7.24416C19.859 7.24416 20.1215 7.14402 20.3216 6.94379C20.7221 6.54341 20.7221 5.89413 20.3216 5.49368L19.7409 4.91297C22.5582 5.46429 25.1421 6.86114 27.1749 8.96388C29.7388 11.6159 31.1507 15.1086 31.1507 18.7983C31.1509 26.6011 24.8027 32.9491 17 32.9491C9.19725 32.9491 2.84912 26.6011 2.84912 18.7983C2.84912 15.8209 3.76288 12.9728 5.49169 10.5619C7.18461 8.20099 9.5184 6.4393 12.2409 5.46737C12.7743 5.27692 13.0522 4.69026 12.8619 4.15685C12.6715 3.62351 12.0847 3.34556 11.5513 3.53594C8.43395 4.6489 5.76226 6.66523 3.82502 9.36686C1.84492 12.1283 0.79834 15.3897 0.79834 18.7984C0.79834 23.126 2.4836 27.1946 5.54371 30.2547C8.60382 33.3146 12.6724 34.9999 17 34.9999C21.3276 34.9999 25.3962 33.3146 28.4563 30.2546C31.5164 27.1945 33.2016 23.126 33.2016 18.7983C33.2016 14.5739 31.5849 10.575 28.6495 7.53859Z" fill="white"/>
<path d="M6.4646 18.7985C6.4646 24.6076 11.1907 29.3337 16.9999 29.3337C22.809 29.3337 27.5351 24.6076 27.5351 18.7985C27.5351 12.9894 22.809 8.26318 16.9999 8.26318C11.1906 8.26318 6.4646 12.9893 6.4646 18.7985ZM17.6293 19.7112C16.1533 19.1894 15.2981 18.7782 14.6777 18.2915C13.9141 17.6926 13.5646 16.6583 13.7654 15.5922C13.9834 14.4357 14.7899 13.515 15.8703 13.1896C15.8853 13.1851 15.9 13.1814 15.9149 13.1771V12.7642C15.9149 12.1979 16.374 11.7388 16.9403 11.7388C17.5066 11.7388 17.9657 12.1979 17.9657 12.7642V13.1118C18.6816 13.2795 19.1813 13.6067 19.3833 13.7577C19.8369 14.0968 19.9297 14.7393 19.5906 15.193C19.2515 15.6466 18.6091 15.7393 18.1554 15.4003C17.9382 15.238 17.339 14.8888 16.4618 15.1531C15.9436 15.3093 15.8095 15.8193 15.7808 15.9719C15.7239 16.2734 15.7892 16.5572 15.9432 16.6779C16.4797 17.0985 17.442 17.4699 18.3127 17.7776C19.9055 18.3407 20.7912 19.8162 20.5166 21.4492C20.3818 22.251 19.9785 22.995 19.3808 23.5442C18.9697 23.9218 18.4907 24.1903 17.9657 24.3418V24.8327C17.9657 25.399 17.5066 25.8581 16.9403 25.8581C16.374 25.8581 15.9149 25.399 15.9149 24.8327V24.4426C15.2327 24.3624 14.6635 24.1524 13.8979 23.6516C13.424 23.3416 13.2912 22.706 13.6012 22.2321C13.9112 21.7581 14.5468 21.6253 15.0207 21.9353C15.7304 22.3997 15.9988 22.4424 16.9334 22.4359C17.8536 22.4297 18.3875 21.7439 18.4942 21.1092C18.5464 20.7993 18.5665 20.0425 17.6293 19.7112Z" fill="white"/>
</svg>
