<svg width="18" height="18" viewBox="0 0 18 18" fill="none" xmlns="http://www.w3.org/2000/svg">
<path d="M5.82322 8.82322C5.87011 8.77634 5.9337 8.75 6 8.75H12C12.0663 8.75 12.1299 8.77634 12.1768 8.82322C12.2237 8.87011 12.25 8.9337 12.25 9C12.25 9.0663 12.2237 9.12989 12.1768 9.17678C12.1299 9.22366 12.0663 9.25 12 9.25H6C5.9337 9.25 5.87011 9.22366 5.82322 9.17678C5.77634 9.12989 5.75 9.0663 5.75 9C5.75 8.9337 5.77634 8.87011 5.82322 8.82322Z" fill="#DB0000" stroke="#DB0000"/>
<path d="M16.75 9C16.75 13.2801 13.2801 16.75 9 16.75C4.71989 16.75 1.25 13.2801 1.25 9C1.25 4.71989 4.71989 1.25 9 1.25C13.2801 1.25 16.75 4.71989 16.75 9ZM15.6981 11.7745C16.0625 10.8948 16.25 9.95208 16.25 9C16.25 7.07718 15.4862 5.23311 14.1265 3.87348C12.7669 2.51384 10.9228 1.75 9 1.75C7.07718 1.75 5.23311 2.51384 3.87348 3.87348C2.51384 5.23311 1.75 7.07718 1.75 9C1.75 9.95208 1.93753 10.8948 2.30187 11.7745C2.66622 12.6541 3.20025 13.4533 3.87348 14.1265C4.5467 14.7997 5.34593 15.3338 6.22554 15.6981C7.10516 16.0625 8.04792 16.25 9 16.25C9.95208 16.25 10.8948 16.0625 11.7745 15.6981C12.6541 15.3338 13.4533 14.7997 14.1265 14.1265C14.7997 13.4533 15.3338 12.6541 15.6981 11.7745Z" fill="#DB0000" stroke="#DB0000"/>
</svg>
