<svg width="36" height="35" viewBox="0 0 36 35" fill="none" xmlns="http://www.w3.org/2000/svg">
<path fill-rule="evenodd" clip-rule="evenodd" d="M16.0586 1.32258L20.4828 3.87689L6.13903 12.1583V18.2948C6.13903 18.54 6.26057 18.7506 6.47296 18.8732L9.79782 20.7928C9.90399 20.8541 10.0255 20.8541 10.1318 20.7928C10.2379 20.7315 10.2987 20.6262 10.2987 20.5037V14.5599L24.6425 6.27849L29.0668 8.83281C29.4915 9.07802 29.7346 9.49911 29.7346 9.98952V17.6656C28.5335 17.2604 27.2625 17.0419 25.9931 16.9644V16.4498C25.9931 15.8891 25.6731 15.3864 25.165 15.1491C24.6572 14.912 24.0661 14.9893 23.6362 15.349L18.5435 19.6114C18.1211 19.9649 17.8902 20.4805 17.9078 21.0311C17.9255 21.584 18.187 22.0801 18.6329 22.4073L23.7085 26.1311C23.9221 26.2886 24.1754 26.3836 24.44 26.4054C24.7045 26.4271 24.9699 26.3748 25.2064 26.2542C25.6919 26.0082 25.9932 25.5178 25.9932 24.9737V24.4055C27.0495 24.5315 28.0952 24.8562 28.9539 25.4779C29.1199 25.5979 29.2775 25.7292 29.4254 25.871C29.3271 25.9862 29.2068 26.086 29.0669 26.1668L16.0586 33.6771C15.6339 33.9223 15.1476 33.9223 14.7229 33.6771L1.71481 26.1668C1.29002 25.9216 1.04694 25.5005 1.04694 25.0101V9.98959C1.04694 9.49911 1.29002 9.07801 1.71481 8.83288L14.723 1.32258C15.1477 1.07737 15.6339 1.07737 16.0586 1.32258ZM24.8994 23.2484C32.0422 23.2484 34.0665 30.0706 28.1994 33.137C28.1839 33.145 28.172 33.1585 28.1662 33.1749C28.1604 33.1914 28.1612 33.2094 28.1682 33.2253C28.1821 33.2561 28.2147 33.2724 28.2475 33.2642C37.9952 30.8666 37.3138 18.0253 24.8994 18.0253V16.4498C24.8994 16.3139 24.8253 16.1976 24.7022 16.1402C24.5791 16.0827 24.4424 16.1005 24.3382 16.1877L19.2455 20.4502C19.079 20.5896 18.9941 20.7792 19.001 20.9963C19.0079 21.2133 19.1048 21.3971 19.2799 21.5256L24.3554 25.2493C24.4619 25.3274 24.5943 25.3383 24.7121 25.2786C24.8298 25.219 24.8994 25.1058 24.8994 24.9738V23.2484Z" fill="white"/>
</svg>
