<svg width="22" height="22" viewBox="0 0 22 22" fill="none" xmlns="http://www.w3.org/2000/svg">
<path fill-rule="evenodd" clip-rule="evenodd" d="M9.37281 1.83333C5.21064 1.83333 1.83655 5.20742 1.83655 9.36959C1.83655 13.5318 5.21064 16.9059 9.37281 16.9059C13.535 16.9059 16.9091 13.5318 16.9091 9.36959C16.9091 5.20742 13.535 1.83333 9.37281 1.83333ZM19.2863 19.2087C18.867 19.6354 18.1772 19.6415 17.7504 19.2222L14.738 16.2621C15.3112 15.8151 15.8268 15.2988 16.2729 14.7249L19.2729 17.6728C19.6996 18.0921 19.7057 18.7819 19.2863 19.2087ZM9.37281 3.93162C12.3761 3.93162 14.8107 6.36628 14.8107 9.36956C14.8107 12.3728 12.3761 14.8075 9.37281 14.8075C6.3695 14.8075 3.93487 12.3728 3.93487 9.36956C3.93487 6.36628 6.36954 3.93162 9.37281 3.93162Z" fill="#1C1C1C"/>
</svg>
