<svg width="36" height="22" viewBox="0 0 36 22" fill="none" xmlns="http://www.w3.org/2000/svg">
<path d="M14.9256 19.4017C16.0426 18.3604 16.2146 16.7293 15.3098 15.7586C14.4049 14.7879 12.7658 14.8452 11.6487 15.8865C10.5317 16.9278 10.3596 18.5589 11.2645 19.5296C12.1694 20.5003 13.8085 20.443 14.9256 19.4017Z" fill="white"/>
<path d="M29.7062 19.4027C30.8233 18.3614 30.9953 16.7303 30.0904 15.7596C29.1855 14.7889 27.5464 14.8462 26.4294 15.8875C25.3123 16.9288 25.1403 18.5599 26.0452 19.5306C26.95 20.5013 28.5891 20.444 29.7062 19.4027Z" fill="white"/>
<path d="M3.20435 6.65698C3.20435 6.01234 2.68176 5.48975 2.03711 5.48975C1.39246 5.48975 0.869873 6.01234 0.869873 6.65698C0.869873 7.30163 1.39246 7.82422 2.03711 7.82422C2.68176 7.82422 3.20435 7.30163 3.20435 6.65698Z" fill="white"/>
<path d="M24.1852 17.4C24.6001 15.3492 26.5374 13.7195 28.6197 13.7195C30.6247 13.7195 32.0698 15.231 32.0301 17.1744C34.1985 17.2312 34.8021 14.3758 34.8021 14.3758C34.9846 13.5773 35.2574 12.0208 35.4857 10.493C35.5605 10.0213 35.503 9.53804 35.3196 9.09707C34.7528 7.77391 34.0678 6.50458 33.2729 5.30449C32.5209 4.18272 31.2597 3.51826 29.8201 3.49434C28.9615 3.48066 28.1186 3.47246 27.4822 3.47246L27.4767 3.46699C27.3947 2.09434 26.3939 1.04297 24.9891 0.917187C24.0751 0.83584 20.4548 0.776367 18.7171 0.776367C18.0267 0.776367 17.0362 0.785937 16.034 0.802344V0.798242H3.97681C3.82345 0.798152 3.67159 0.828291 3.52989 0.886935C3.38819 0.94558 3.25944 1.03158 3.151 1.14002C3.04257 1.24845 2.95657 1.3772 2.89792 1.5189C2.83928 1.6606 2.80914 1.81247 2.80923 1.96582V1.97129C2.80923 2.2795 2.93166 2.57509 3.1496 2.79302C3.36754 3.01096 3.66313 3.1334 3.97134 3.1334H6.40015C6.69261 3.15496 6.9661 3.2863 7.16578 3.50106C7.36546 3.71583 7.47656 3.99815 7.47681 4.29141V4.29756C7.47725 4.45106 7.44743 4.60314 7.38904 4.74511C7.33065 4.88707 7.24484 5.01612 7.13652 5.12489C7.0282 5.23365 6.8995 5.31999 6.75778 5.37896C6.61606 5.43793 6.4641 5.46838 6.3106 5.46855H5.06509C4.75561 5.46855 4.4588 5.5915 4.23997 5.81033C4.02113 6.02917 3.89819 6.32597 3.89819 6.63545C3.8981 6.78875 3.92822 6.94056 3.98682 7.08221C4.04542 7.22386 4.13136 7.35258 4.23973 7.46101C4.34809 7.56944 4.47676 7.65545 4.61838 7.71414C4.76 7.77282 4.91179 7.80303 5.06509 7.80303H6.3106C6.62026 7.80303 6.91723 7.92604 7.1362 8.145C7.35516 8.36397 7.47817 8.66095 7.47817 8.97061C7.47817 9.28027 7.35516 9.57725 7.1362 9.79621C6.91723 10.0152 6.62026 10.1382 6.3106 10.1382H1.65122C1.34168 10.1382 1.0448 10.2611 0.82586 10.4799C0.606916 10.6987 0.483824 10.9955 0.483643 11.3051C0.483643 11.6147 0.606655 11.9117 0.825618 12.1307C1.04458 12.3496 1.34156 12.4727 1.65122 12.4727H6.3106C6.62026 12.4727 6.91723 12.5957 7.1362 12.8146C7.35516 13.0336 7.47817 13.3306 7.47817 13.6402C7.47781 13.9497 7.35464 14.2463 7.13571 14.465C6.91679 14.6836 6.62002 14.8064 6.3106 14.8064H4.86958C4.5601 14.8064 4.2633 14.9294 4.04446 15.1482C3.82563 15.3671 3.70269 15.6639 3.70269 15.9733C3.70269 16.2829 3.8256 16.5798 4.04442 16.7987C4.26323 17.0176 4.56004 17.1407 4.86958 17.1409L9.46743 17.1375L9.84956 16.1853C10.6323 14.7415 12.1895 13.7188 13.8383 13.7188C15.9212 13.7188 17.4005 15.3499 17.2378 17.4021H24.1845M12.6044 6.01201H11.0376C11.0362 6.01213 11.0348 6.01273 11.0337 6.01372C11.0325 6.0147 11.0318 6.01602 11.0315 6.01748L10.8873 7.04287C10.887 7.04369 10.887 7.04456 10.8872 7.04539C10.8874 7.04622 10.8877 7.04699 10.8883 7.04766C10.8888 7.04832 10.8895 7.04885 10.8903 7.04921C10.891 7.04956 10.8919 7.04973 10.8927 7.04971H12.0589C12.1162 7.04808 12.1731 7.05925 12.2254 7.0824C12.2778 7.10555 12.3244 7.14009 12.3617 7.18352C12.399 7.22694 12.4262 7.27815 12.4412 7.3334C12.4563 7.38866 12.4588 7.44658 12.4486 7.50293C12.4286 7.62679 12.3661 7.73981 12.2717 7.82253C12.1774 7.90526 12.0572 7.95251 11.9318 7.95615H10.7642C10.7628 7.95612 10.7614 7.95657 10.7603 7.95745C10.7592 7.95832 10.7584 7.95955 10.7581 7.96094L10.5489 9.45049C10.5289 9.57435 10.4664 9.68737 10.372 9.77009C10.2777 9.85282 10.1575 9.90007 10.0321 9.90371C9.97486 9.90536 9.91799 9.8942 9.86563 9.87105C9.81328 9.8479 9.76676 9.81334 9.72947 9.76989C9.69219 9.72645 9.66509 9.67523 9.65015 9.61996C9.63521 9.5647 9.6328 9.5068 9.64312 9.45049L10.1859 5.58682C10.2074 5.45601 10.2737 5.33674 10.3735 5.24945C10.4732 5.16215 10.6003 5.11225 10.7328 5.1083H12.7309C12.7881 5.10665 12.845 5.11781 12.8974 5.14096C12.9497 5.16412 12.9962 5.19868 13.0335 5.24212C13.0708 5.28556 13.0979 5.33679 13.1128 5.39205C13.1278 5.44731 13.1302 5.50521 13.1199 5.56152C13.0996 5.68477 13.0371 5.79713 12.9431 5.87932C12.849 5.96152 12.7293 6.00843 12.6044 6.01201ZM16.7921 5.41592C16.9549 5.56033 17.0694 5.75121 17.1203 5.96279C17.1771 6.20248 17.1864 6.45098 17.1476 6.69424C17.1001 7.07276 16.9452 7.42976 16.7012 7.72305C16.5522 7.89919 16.363 8.03683 16.1496 8.12432C16.1486 8.12533 16.1481 8.12668 16.1481 8.12808C16.1481 8.12948 16.1486 8.13082 16.1496 8.13184L16.5378 9.25225C16.6424 9.55303 16.3738 9.90371 16.0395 9.90371H16.0176C15.9365 9.90609 15.8568 9.8826 15.7899 9.83664C15.7231 9.79067 15.6726 9.72462 15.6458 9.64805L15.1761 8.28086C15.1755 8.27983 15.1745 8.27898 15.1735 8.27839C15.1724 8.27779 15.1712 8.27747 15.17 8.27744H14.1719C14.1705 8.27752 14.1692 8.27802 14.1681 8.27887C14.167 8.27973 14.1662 8.2809 14.1658 8.28223L14.0017 9.44981C13.9817 9.57367 13.9192 9.68669 13.8249 9.76941C13.7305 9.85213 13.6103 9.89938 13.4849 9.90303C13.4277 9.90468 13.3708 9.89352 13.3185 9.87037C13.2661 9.84721 13.2196 9.81265 13.1823 9.76921C13.145 9.72577 13.1179 9.67454 13.103 9.61928C13.088 9.56402 13.0856 9.50612 13.0959 9.44981L13.6387 5.58613C13.6602 5.45532 13.7265 5.33606 13.8263 5.24876C13.9261 5.16147 14.0531 5.11157 14.1856 5.10762H15.7305C15.7305 5.10762 16.4086 5.08643 16.7921 5.41592ZM21.0441 5.52939C21.0255 5.64509 20.9671 5.75067 20.879 5.82792C20.7909 5.90517 20.6786 5.94925 20.5615 5.95254H18.7643C18.7629 5.95261 18.7616 5.95311 18.7605 5.95397C18.7594 5.95482 18.7586 5.956 18.7582 5.95732L18.6153 6.97178C18.6151 6.9726 18.615 6.97346 18.6152 6.97429C18.6154 6.97512 18.6158 6.9759 18.6163 6.97656C18.6168 6.97723 18.6175 6.97776 18.6183 6.97811C18.6191 6.97847 18.6199 6.97864 18.6207 6.97861H20.0166C20.0701 6.97703 20.1232 6.98742 20.1722 7.00901C20.2211 7.03061 20.2646 7.06286 20.2994 7.10342C20.3343 7.14398 20.3596 7.19182 20.3736 7.24344C20.3876 7.29505 20.3899 7.34915 20.3803 7.40176C20.3617 7.51745 20.3034 7.62303 20.2153 7.70028C20.1271 7.77753 20.0148 7.82161 19.8977 7.8249H18.5011C18.4997 7.82498 18.4984 7.82548 18.4973 7.82633C18.4962 7.82719 18.4954 7.82836 18.495 7.82969L18.3234 9.05059C18.3234 9.05229 18.324 9.05393 18.3251 9.05519C18.3263 9.05646 18.3278 9.05725 18.3295 9.05742H20.1253C20.1788 9.05584 20.2319 9.06623 20.2809 9.08782C20.3298 9.10942 20.3733 9.14167 20.4081 9.18223C20.443 9.22279 20.4683 9.27063 20.4823 9.32224C20.4963 9.37386 20.4986 9.42795 20.489 9.48057C20.4704 9.59626 20.412 9.70184 20.3239 9.77909C20.2358 9.85634 20.1235 9.90042 20.0064 9.90371H17.7779C17.7178 9.90455 17.6582 9.89216 17.6034 9.86742C17.5486 9.84267 17.4999 9.80618 17.4607 9.76052C17.4216 9.71486 17.393 9.66116 17.3769 9.60321C17.3608 9.54526 17.3577 9.48449 17.3677 9.4252L17.9071 5.58887C17.9286 5.45806 17.9949 5.33879 18.0947 5.2515C18.1944 5.1642 18.3214 5.1143 18.454 5.11035H20.6818C20.7347 5.1091 20.7873 5.11957 20.8357 5.14102C20.8841 5.16247 20.9272 5.19436 20.9618 5.23441C20.9964 5.27446 21.0217 5.32168 21.036 5.37268C21.0502 5.42368 21.053 5.4772 21.0441 5.52939ZM24.7772 5.52939C24.7586 5.64509 24.7002 5.75067 24.6121 5.82792C24.524 5.90517 24.4117 5.94925 24.2946 5.95254H22.4974C22.496 5.95261 22.4947 5.95311 22.4936 5.95397C22.4925 5.95482 22.4917 5.956 22.4913 5.95732L22.3491 6.97178C22.3489 6.9726 22.3488 6.97346 22.349 6.97429C22.3492 6.97512 22.3496 6.9759 22.3501 6.97656C22.3506 6.97723 22.3513 6.97776 22.3521 6.97811C22.3528 6.97847 22.3537 6.97864 22.3545 6.97861H23.7504C23.8039 6.97703 23.857 6.98742 23.906 7.00901C23.9549 7.03061 23.9984 7.06286 24.0332 7.10342C24.0681 7.14398 24.0934 7.19182 24.1074 7.24344C24.1214 7.29505 24.1237 7.34915 24.1141 7.40176C24.0955 7.51745 24.0371 7.62303 23.949 7.70028C23.8609 7.77753 23.7486 7.82161 23.6315 7.8249H22.2342C22.2328 7.82498 22.2315 7.82548 22.2304 7.82633C22.2293 7.82719 22.2285 7.82836 22.2281 7.82969L22.0565 9.05059C22.0565 9.05229 22.0571 9.05393 22.0582 9.05519C22.0594 9.05646 22.061 9.05725 22.0626 9.05742H23.8584C23.9119 9.05584 23.965 9.06623 24.014 9.08782C24.0629 9.10942 24.1064 9.14167 24.1412 9.18223C24.1761 9.22279 24.2014 9.27063 24.2154 9.32224C24.2294 9.37386 24.2317 9.42795 24.2221 9.48057C24.2035 9.59626 24.1452 9.70184 24.057 9.77909C23.9689 9.85634 23.8566 9.90042 23.7395 9.90371H21.511C21.4509 9.90455 21.3913 9.89216 21.3365 9.86742C21.2817 9.84267 21.233 9.80618 21.1938 9.76052C21.1547 9.71486 21.1261 9.66116 21.11 9.60321C21.0939 9.54526 21.0908 9.48449 21.1008 9.4252L21.6402 5.58887C21.6617 5.45806 21.728 5.33879 21.8278 5.2515C21.9275 5.1642 22.0546 5.1143 22.1871 5.11035H24.4149C24.4678 5.1091 24.5204 5.11957 24.5688 5.14102C24.6172 5.16247 24.6603 5.19436 24.6949 5.23441C24.7295 5.27446 24.7549 5.32168 24.7691 5.37268C24.7833 5.42368 24.7861 5.4772 24.7772 5.52939ZM27.3749 5.09121C27.9853 5.09121 28.7755 5.09941 29.5685 5.1124C30.5296 5.12813 31.3705 5.56973 31.8749 6.32305C32.4138 7.13543 32.8982 7.98267 33.3248 8.85918C33.5504 9.31856 33.1355 9.9167 32.592 9.9167H26.7644L27.3749 5.09121Z" fill="white"/>
<path d="M15.3647 7.43163H14.2847L14.4897 5.95234H15.5691C15.5691 5.95234 16.3614 5.90107 16.2315 6.69198C16.235 6.69198 16.144 7.43163 15.3647 7.43163Z" fill="white"/>
</svg>
