<svg width="22" height="22" viewBox="0 0 22 22" fill="none" xmlns="http://www.w3.org/2000/svg">
<path d="M20.8182 11.9819C20.5578 11.9819 20.3081 12.0854 20.1239 12.2695C19.9398 12.4536 19.8364 12.7034 19.8364 12.9638V17.1004C19.8356 17.8259 19.547 18.5214 19.034 19.0344C18.521 19.5475 17.8254 19.836 17.0999 19.8368H4.89937C4.17386 19.836 3.47829 19.5475 2.96528 19.0344C2.45226 18.5214 2.16371 17.8259 2.16293 17.1004V12.9638C2.16293 12.7034 2.05949 12.4536 1.87535 12.2695C1.69122 12.0854 1.44148 11.9819 1.18108 11.9819C0.920671 11.9819 0.670932 12.0854 0.486798 12.2695C0.302664 12.4536 0.199219 12.7034 0.199219 12.9638V17.1004C0.200518 18.3465 0.696128 19.5413 1.5773 20.4224C2.45846 21.3036 3.65321 21.7992 4.89937 21.8005H17.0999C18.3461 21.7992 19.5408 21.3036 20.422 20.4224C21.3032 19.5413 21.7988 18.3465 21.8001 17.1004V12.9638C21.8001 12.7034 21.6966 12.4536 21.5125 12.2695C21.3284 12.0854 21.0786 11.9819 20.8182 11.9819Z" fill="#1C1C1C"/>
<path d="M5.80459 7.76716L10.0197 3.55204V15.9097C10.0197 16.1701 10.1231 16.4198 10.3073 16.604C10.4914 16.7881 10.7412 16.8916 11.0016 16.8916C11.262 16.8916 11.5117 16.7881 11.6958 16.604C11.88 16.4198 11.9834 16.1701 11.9834 15.9097V3.55204L16.1985 7.76716C16.3837 7.94601 16.6317 8.04497 16.8892 8.04274C17.1466 8.0405 17.3929 7.93724 17.5749 7.7552C17.757 7.57315 17.8602 7.32689 17.8625 7.06945C17.8647 6.81201 17.7657 6.56399 17.5869 6.37881L11.6957 0.48767C11.5116 0.3036 11.2619 0.200195 11.0016 0.200195C10.7412 0.200195 10.4915 0.3036 10.3074 0.48767L4.41624 6.37881C4.23739 6.56399 4.13843 6.81201 4.14066 7.06945C4.1429 7.32689 4.24616 7.57315 4.4282 7.7552C4.61025 7.93724 4.85651 8.0405 5.11395 8.04274C5.37139 8.04497 5.61941 7.94601 5.80459 7.76716Z" fill="#1C1C1C"/>
</svg>
