<svg width="20" height="20" viewBox="0 0 20 20" fill="none" xmlns="http://www.w3.org/2000/svg">
<path d="M8.31637 3.61719C8.31637 2.62998 9.11952 1.82682 10.1067 1.82682H10.7263L10.5394 1.30726C10.4343 1.01507 10.159 0.833347 9.8655 0.833347C9.78418 0.833347 9.70146 0.847312 9.62061 0.876746L3.3596 3.15556C2.98738 3.29105 2.79581 3.70294 2.9321 4.07487L3.26292 4.97786H8.31637V3.61719Z" fill="#1C1C1C"/>
<path d="M10.1071 2.90103C9.71157 2.90103 9.39095 3.22165 9.39095 3.61718V4.97785H15.6572V3.61718C15.6572 3.22165 15.3366 2.90103 14.9411 2.90103H10.1071ZM17.555 15.3083H15.0485C13.5677 15.3083 12.363 14.1035 12.363 12.6227C12.363 11.1419 13.5677 9.93716 15.0485 9.93716H17.555V7.48436C17.555 6.69335 16.9137 6.05207 16.1227 6.05207H2.2653C1.47428 6.05207 0.833008 6.69335 0.833008 7.48436V17.7344C0.833008 18.5254 1.47428 19.1667 2.2653 19.1667H16.1227C16.9137 19.1667 17.555 18.5254 17.555 17.7344V15.3083Z" fill="#1C1C1C"/>
<path d="M18.6293 11.0114H15.0486C14.1601 11.0114 13.4373 11.7342 13.4373 12.6227C13.4373 13.5112 14.1601 14.234 15.0486 14.234H18.6293C18.9255 14.234 19.1664 13.9931 19.1664 13.6969V11.5485C19.1664 11.2523 18.9255 11.0114 18.6293 11.0114ZM15.0486 13.1598C14.752 13.1598 14.5115 12.9193 14.5115 12.6227C14.5115 12.3261 14.752 12.0856 15.0486 12.0856C15.3452 12.0856 15.5857 12.3261 15.5857 12.6227C15.5857 12.9193 15.3452 13.1598 15.0486 13.1598Z" fill="#1C1C1C"/>
</svg>
